<svg xmlns="http://www.w3.org/2000/svg" xmlns:xlink="http://www.w3.org/1999/xlink" width="500" zoomAndPan="magnify" viewBox="0 0 375 374.999991" height="500" preserveAspectRatio="xMidYMid meet" version="1.0"><rect x="-37.5" width="450" fill="#ffffff" y="-37.499999" height="449.999989" fill-opacity="1"/><rect x="-37.5" width="450" fill="#fdf21d" y="-37.499999" height="449.999989" fill-opacity="1"/><path fill="#000000" d="M 150.789062 48.707031 C 146.613281 50.101562 143.597656 51.722656 144.292969 52.421875 C 146.378906 54.277344 164.476562 50.5625 164.476562 48.246094 C 164.476562 45.691406 161.226562 45.925781 150.789062 48.707031 Z M 150.789062 48.707031 " fill-opacity="1" fill-rule="nonzero"/><path fill="#000000" d="M 188.140625 52.421875 C 179.324219 54.042969 175.148438 70.515625 182.109375 77.246094 C 186.75 82.117188 202.523438 82.117188 206.234375 77.246094 C 210.414062 72.605469 210.179688 60.539062 206.003906 56.828125 C 201.828125 52.882812 195.101562 51.261719 188.140625 52.421875 Z M 202.757812 67.035156 C 202.757812 74.460938 202.058594 75.15625 195.332031 75.851562 C 186.515625 76.78125 182.339844 71.210938 185.589844 62.859375 C 187.210938 58.453125 189.066406 57.523438 195.101562 58.21875 C 202.058594 58.917969 202.757812 59.613281 202.757812 67.035156 Z M 202.757812 67.035156 " fill-opacity="1" fill-rule="nonzero"/><path fill="#000000" d="M 151.714844 58.21875 C 151.019531 59.84375 149.859375 67.269531 148.699219 74.460938 C 147.078125 84.898438 147.308594 87.917969 149.628906 87.917969 C 151.484375 87.917969 153.109375 83.042969 154.035156 75.15625 C 154.964844 68.195312 156.355469 62.394531 157.285156 62.394531 C 158.210938 62.394531 162.386719 67.035156 166.332031 72.835938 C 177.003906 87.917969 180.019531 83.507812 169.8125 68.195312 C 161.691406 55.898438 154.035156 51.722656 151.714844 58.21875 Z M 151.714844 58.21875 " fill-opacity="1" fill-rule="nonzero"/><path fill="#000000" d="M 234.773438 59.84375 C 231.523438 61.933594 229.667969 68.195312 231.292969 70.980469 C 232.21875 72.371094 236.394531 75.15625 240.804688 77.246094 C 251.246094 82.8125 247.300781 87.21875 235.234375 83.277344 C 226.421875 80.492188 221.316406 81.882812 227.117188 85.597656 C 231.988281 88.84375 244.980469 90.933594 249.15625 89.308594 C 255.421875 86.988281 253.101562 78.636719 244.515625 73.765625 C 234.773438 67.964844 233.84375 63.554688 242.890625 65.644531 C 253.5625 68.195312 254.722656 68.195312 254.957031 65.875 C 255.421875 63.09375 237.789062 57.757812 234.773438 59.84375 Z M 234.773438 59.84375 " fill-opacity="1" fill-rule="nonzero"/><path fill="#000000" d="M 124.570312 66.109375 C 114.828125 71.210938 112.738281 77.011719 116.683594 86.523438 C 119.46875 93.019531 121.554688 94.644531 127.589844 95.339844 C 133.621094 95.804688 135.707031 97.429688 136.867188 101.835938 C 138.027344 106.707031 138.492188 106.941406 140.117188 103.691406 C 141.042969 101.605469 141.042969 98.589844 140.117188 97.195312 C 139.1875 95.804688 139.882812 93.019531 141.507812 91.164062 C 145.453125 86.292969 143.132812 85.363281 135.011719 88.378906 C 129.210938 90.46875 126.890625 90.46875 124.109375 88.148438 C 117.84375 83.042969 119.46875 74.460938 127.355469 70.515625 C 131.300781 68.429688 133.851562 65.875 133.15625 64.714844 C 131.53125 61.933594 132.226562 61.933594 124.570312 66.109375 Z M 124.570312 66.109375 " fill-opacity="1" fill-rule="nonzero"/><path fill="#000000" d="M 260.757812 79.5625 C 254.957031 88.148438 257.042969 97.429688 265.859375 102.53125 C 274.910156 107.867188 280.476562 106.246094 285.8125 97.429688 C 291.148438 88.378906 290.917969 86.292969 283.722656 79.796875 C 275.605469 72.140625 265.628906 72.140625 260.757812 79.5625 Z M 278.851562 81.882812 C 288.132812 89.078125 280.476562 102.066406 269.339844 98.125 C 261.683594 95.339844 260.058594 89.078125 265.628906 83.042969 C 270.269531 77.941406 273.050781 77.707031 278.851562 81.882812 Z M 278.851562 81.882812 " fill-opacity="1" fill-rule="nonzero"/><path fill="#000000" d="M 90.46875 86.523438 C 88.148438 89.308594 88.378906 93.019531 91.628906 103.925781 C 93.714844 111.8125 96.5 118.078125 97.429688 118.078125 C 100.210938 118.078125 99.980469 112.277344 96.730469 101.605469 C 95.339844 96.5 94.875 91.859375 95.570312 90.933594 C 96.5 90.234375 101.371094 92.324219 106.476562 95.804688 C 115.988281 102.066406 120.394531 103.226562 120.394531 99.75 C 120.394531 97.660156 98.125 83.277344 95.109375 83.277344 C 93.949219 83.277344 91.859375 84.667969 90.46875 86.523438 Z M 90.46875 86.523438 " fill-opacity="1" fill-rule="nonzero"/><path fill="#000000" d="M 290.917969 102.996094 C 287.667969 106.011719 285.117188 110.1875 285.117188 112.042969 C 285.117188 116.917969 298.109375 131.300781 300.429688 128.980469 C 301.355469 128.050781 299.730469 124.804688 296.714844 121.789062 C 293.003906 117.613281 291.84375 114.363281 293.003906 110.421875 C 295.09375 102.300781 301.125 100.675781 309.011719 106.476562 C 317.597656 112.972656 320.148438 110.652344 312.957031 102.996094 C 305.996094 95.570312 298.109375 95.570312 290.917969 102.996094 Z M 290.917969 102.996094 " fill-opacity="1" fill-rule="nonzero"/><path fill="#000000" d="M 150.09375 115.757812 C 164.476562 122.253906 180.949219 140.347656 186.285156 154.964844 C 191.621094 170.042969 190.460938 191.621094 183.5 205.308594 C 177.234375 217.835938 157.050781 235.699219 145.683594 238.949219 C 140.8125 240.570312 136.636719 242.429688 136.636719 243.125 C 136.636719 246.371094 189.765625 297.179688 192.316406 296.253906 C 194.171875 295.789062 194.867188 281.867188 194.636719 244.285156 C 194.402344 196.957031 194.867188 191.851562 199.507812 179.554688 C 206.003906 161.925781 219.925781 148.003906 237.324219 141.507812 C 256.347656 134.546875 257.738281 134.78125 256.8125 146.148438 C 256.117188 155.195312 255.652344 155.890625 244.515625 160.066406 C 229.4375 165.636719 218.996094 177.699219 215.75 192.546875 C 211.570312 212.035156 209.714844 210.875 241.964844 210.875 C 262.84375 210.875 271.195312 211.570312 272.125 213.660156 C 273.980469 218.300781 289.058594 199.738281 293.234375 187.910156 C 300.429688 166.5625 295.554688 145.21875 279.316406 128.515625 C 258.667969 107.402344 222.941406 106.011719 198.347656 125.269531 C 193.011719 129.445312 190.925781 129.910156 187.910156 127.589844 C 179.324219 121.324219 160.300781 113.667969 150.554688 112.277344 L 140.117188 111.117188 Z M 150.09375 115.757812 " fill-opacity="1" fill-rule="nonzero"/><path fill="#000000" d="M 312.492188 124.570312 C 306.460938 129.210938 301.589844 133.851562 301.355469 134.78125 C 301.125 138.492188 306.925781 136.402344 316.203125 129.210938 C 321.308594 125.269531 326.179688 121.554688 326.644531 121.09375 C 327.339844 120.628906 326.644531 119.46875 325.484375 118.308594 C 324.324219 116.917969 318.988281 119.46875 312.492188 124.570312 Z M 312.492188 124.570312 " fill-opacity="1" fill-rule="nonzero"/><path fill="#000000" d="M 56.132812 120.859375 C 51.261719 127.125 48.476562 134.085938 49.867188 137.332031 C 51.492188 141.972656 68.890625 154.035156 70.980469 152.179688 C 71.675781 151.253906 70.515625 148.46875 68.195312 145.917969 C 64.484375 141.738281 64.253906 141.042969 67.964844 135.707031 C 73.996094 126.195312 72.140625 123.179688 64.949219 131.300781 C 61.46875 135.476562 57.757812 138.957031 57.058594 138.957031 C 54.277344 138.957031 55.4375 130.605469 58.917969 125.964844 C 60.773438 123.644531 62.394531 120.859375 62.394531 119.699219 C 62.394531 117.148438 58.453125 117.84375 56.132812 120.859375 Z M 56.132812 120.859375 " fill-opacity="1" fill-rule="nonzero"/><path fill="#000000" d="M 80.957031 129.675781 C 80.957031 130.835938 82.117188 131.996094 83.277344 131.996094 C 84.667969 131.996094 85.597656 130.835938 85.597656 129.675781 C 85.597656 128.285156 84.667969 127.355469 83.277344 127.355469 C 82.117188 127.355469 80.957031 128.285156 80.957031 129.675781 Z M 80.957031 129.675781 " fill-opacity="1" fill-rule="nonzero"/><path fill="#000000" d="M 120.394531 177.234375 C 120.394531 233.613281 119.003906 230.363281 139.652344 223.402344 C 153.109375 218.765625 167.957031 203.21875 171.4375 189.765625 C 177.46875 167.492188 166.5625 143.828125 145.683594 133.386719 C 138.957031 130.140625 130.371094 127.355469 126.890625 127.355469 L 120.394531 127.355469 Z M 120.394531 177.234375 " fill-opacity="1" fill-rule="nonzero"/><path fill="#000000" d="M 93.253906 140.582031 C 87.683594 150.09375 86.757812 154.269531 86.757812 169.117188 C 86.757812 183.964844 87.683594 188.140625 93.253906 197.421875 C 96.730469 203.683594 100.675781 208.554688 101.835938 208.554688 C 103.226562 208.554688 104.15625 192.78125 104.15625 169.117188 C 104.15625 145.453125 103.226562 129.675781 101.835938 129.675781 C 100.675781 129.675781 96.730469 134.546875 93.253906 140.582031 Z M 93.253906 140.582031 " fill-opacity="1" fill-rule="nonzero"/><path fill="#000000" d="M 313.652344 138.261719 C 310.636719 138.722656 308.316406 140.347656 308.316406 141.738281 C 308.316406 143.363281 312.957031 143.597656 322.234375 142.667969 C 329.890625 141.738281 336.15625 141.738281 336.15625 142.667969 C 336.15625 143.597656 332.445312 148.234375 328.035156 153.109375 C 319.917969 162.15625 317.828125 166.796875 322.003906 166.796875 C 326.179688 166.796875 343.117188 144.058594 341.722656 140.347656 C 340.332031 136.636719 326.875 135.707031 313.652344 138.261719 Z M 313.652344 138.261719 " fill-opacity="1" fill-rule="nonzero"/><path fill="#000000" d="M 61.46875 157.050781 C 60.773438 158.445312 61.234375 160.300781 62.628906 160.996094 C 66.109375 163.316406 68.429688 160.300781 65.414062 157.285156 C 63.789062 155.660156 62.394531 155.660156 61.46875 157.050781 Z M 61.46875 157.050781 " fill-opacity="1" fill-rule="nonzero"/><path fill="#000000" d="M 33.628906 162.621094 C 25.738281 175.148438 26.4375 177.234375 40.589844 182.804688 C 47.78125 185.589844 54.042969 187.445312 54.277344 187.210938 C 57.058594 183.5 60.078125 175.148438 60.078125 170.507812 C 60.078125 158.675781 40.125 152.644531 33.628906 162.621094 Z M 51.027344 164.476562 C 55.667969 167.027344 56.597656 172.828125 53.347656 178.164062 C 51.722656 180.714844 49.867188 180.714844 42.910156 178.164062 C 33.859375 174.917969 33.164062 173.523438 36.875 166.5625 C 39.660156 161.691406 44.300781 160.996094 51.027344 164.476562 Z M 51.027344 164.476562 " fill-opacity="1" fill-rule="nonzero"/><path fill="#000000" d="M 339.636719 163.78125 C 325.714844 168.652344 323.394531 171.667969 326.875 181.644531 C 330.589844 192.78125 334.300781 192.316406 332.445312 180.949219 C 331.050781 172.132812 331.285156 171.898438 339.867188 169.117188 C 344.972656 167.492188 349.84375 165.402344 350.773438 164.476562 C 354.714844 160.996094 348.683594 160.53125 339.636719 163.78125 Z M 339.636719 163.78125 " fill-opacity="1" fill-rule="nonzero"/><path fill="#000000" d="M 213.195312 252.636719 C 213.195312 264.003906 213.890625 273.515625 215.050781 273.515625 C 215.980469 273.515625 226.1875 264.003906 237.554688 252.636719 L 258.4375 231.757812 L 213.195312 231.757812 Z M 213.195312 252.636719 " fill-opacity="1" fill-rule="nonzero"/><path fill="#000000" d="M 95.570312 249.621094 C 89.308594 251.707031 92.554688 265.394531 102.53125 280.476562 C 112.972656 296.484375 112.738281 296.484375 156.125 313.882812 C 162.15625 316.203125 172.363281 323.164062 178.628906 329.429688 L 190.460938 340.796875 L 188.835938 333.371094 C 182.570312 302.050781 172.132812 286.738281 150.324219 275.835938 C 135.246094 268.179688 134.316406 267.949219 134.316406 271.195312 C 134.316406 272.589844 140.117188 277.226562 147.308594 281.867188 C 154.5 286.507812 159.605469 290.683594 158.910156 291.378906 C 158.210938 292.078125 156.125 290.917969 154.035156 288.828125 C 151.484375 286.507812 146.613281 285.117188 139.421875 285.347656 C 130.371094 285.582031 129.675781 285.8125 134.316406 287.4375 C 138.492188 288.828125 138.957031 289.292969 135.941406 289.523438 C 133.621094 289.757812 126.429688 287.4375 120.164062 284.882812 C 107.636719 279.316406 102.765625 272.589844 99.980469 257.507812 C 99.050781 251.941406 97.195312 249.15625 95.570312 249.621094 Z M 151.253906 291.378906 C 149.628906 291.84375 146.378906 291.84375 144.292969 291.378906 C 141.972656 290.683594 143.363281 290.21875 147.078125 290.21875 C 151.019531 290.21875 152.644531 290.683594 151.253906 291.378906 Z M 151.253906 291.378906 " fill-opacity="1" fill-rule="nonzero"/><path fill="#000000" d="M 286.738281 257.042969 C 285.8125 262.613281 283.261719 270.269531 281.171875 273.75 C 277.226562 280.476562 258.898438 289.988281 251.011719 289.523438 C 247.996094 289.292969 248.460938 288.828125 252.636719 287.4375 C 257.277344 285.8125 256.582031 285.582031 247.53125 285.347656 C 240.339844 285.117188 235.46875 286.507812 232.917969 288.828125 C 230.828125 290.917969 228.738281 292.078125 228.042969 291.378906 C 227.347656 290.683594 232.453125 286.507812 239.644531 281.867188 C 246.835938 277.226562 252.636719 272.589844 252.636719 271.195312 C 252.636719 267.949219 251.707031 268.179688 236.859375 275.605469 C 214.820312 286.738281 207.164062 296.484375 200.667969 321.539062 C 195.5625 341.027344 196.027344 342.1875 204.148438 332.675781 C 212.964844 322.699219 226.421875 314.582031 243.589844 308.546875 C 267.484375 300.429688 275.140625 295.09375 284.1875 281.171875 C 289.292969 273.050781 293.003906 264.234375 293.46875 258.4375 C 294.164062 251.011719 293.933594 250.316406 292.308594 254.957031 L 290.453125 260.757812 L 289.523438 253.796875 C 288.597656 247.53125 288.363281 247.765625 286.738281 257.042969 Z M 244.050781 291.378906 C 242.429688 291.84375 239.179688 291.84375 237.09375 291.378906 C 234.773438 290.683594 236.164062 290.21875 239.875 290.21875 C 243.820312 290.21875 245.445312 290.683594 244.050781 291.378906 Z M 244.050781 291.378906 " fill-opacity="1" fill-rule="nonzero"/></svg>