<svg xmlns="http://www.w3.org/2000/svg" xmlns:xlink="http://www.w3.org/1999/xlink" width="500" zoomAndPan="magnify" viewBox="0 0 375 374.999991" height="500" preserveAspectRatio="xMidYMid meet" version="1.0"><path fill="#000000" d="M 147.75 37.75 C 143.25 39.25 140 41 140.75 41.75 C 143 43.75 162.5 39.75 162.5 37.25 C 162.5 34.5 159 34.75 147.75 37.75 Z M 147.75 37.75 " fill-opacity="1" fill-rule="nonzero"/><path fill="#000000" d="M 188 41.75 C 178.5 43.5 174 61.25 181.5 68.5 C 186.5 73.75 203.5 73.75 207.5 68.5 C 212 63.5 211.75 50.5 207.25 46.5 C 202.75 42.25 195.5 40.5 188 41.75 Z M 203.75 57.5 C 203.75 65.5 203 66.25 195.75 67 C 186.25 68 181.75 62 185.25 53 C 187 48.25 189 47.25 195.5 48 C 203 48.75 203.75 49.5 203.75 57.5 Z M 203.75 57.5 " fill-opacity="1" fill-rule="nonzero"/><path fill="#000000" d="M 148.75 48 C 148 49.75 146.75 57.75 145.5 65.5 C 143.75 76.75 144 80 146.5 80 C 148.5 80 150.25 74.75 151.25 66.25 C 152.25 58.75 153.75 52.5 154.75 52.5 C 155.75 52.5 160.25 57.5 164.5 63.75 C 176 80 179.25 75.25 168.25 58.75 C 159.5 45.5 151.25 41 148.75 48 Z M 148.75 48 " fill-opacity="1" fill-rule="nonzero"/><path fill="#000000" d="M 238.25 49.75 C 234.75 52 232.75 58.75 234.5 61.75 C 235.5 63.25 240 66.25 244.75 68.5 C 256 74.5 251.75 79.25 238.75 75 C 229.25 72 223.75 73.5 230 77.5 C 235.25 81 249.25 83.25 253.75 81.5 C 260.5 79 258 70 248.75 64.75 C 238.25 58.5 237.25 53.75 247 56 C 258.5 58.75 259.75 58.75 260 56.25 C 260.5 53.25 241.5 47.5 238.25 49.75 Z M 238.25 49.75 " fill-opacity="1" fill-rule="nonzero"/><path fill="#000000" d="M 119.5 56.5 C 109 62 106.75 68.25 111 78.5 C 114 85.5 116.25 87.25 122.75 88 C 129.25 88.5 131.5 90.25 132.75 95 C 134 100.25 134.5 100.5 136.25 97 C 137.25 94.75 137.25 91.5 136.25 90 C 135.25 88.5 136 85.5 137.75 83.5 C 142 78.25 139.5 77.25 130.75 80.5 C 124.5 82.75 122 82.75 119 80.25 C 112.25 74.75 114 65.5 122.5 61.25 C 126.75 59 129.5 56.25 128.75 55 C 127 52 127.75 52 119.5 56.5 Z M 119.5 56.5 " fill-opacity="1" fill-rule="nonzero"/><path fill="#000000" d="M 266.25 71 C 260 80.25 262.25 90.25 271.75 95.75 C 281.5 101.5 287.5 99.75 293.25 90.25 C 299 80.5 298.75 78.25 291 71.25 C 282.25 63 271.5 63 266.25 71 Z M 285.75 73.5 C 295.75 81.25 287.5 95.25 275.5 91 C 267.25 88 265.5 81.25 271.5 74.75 C 276.5 69.25 279.5 69 285.75 73.5 Z M 285.75 73.5 " fill-opacity="1" fill-rule="nonzero"/><path fill="#000000" d="M 82.75 78.5 C 80.25 81.5 80.5 85.5 84 97.25 C 86.25 105.75 89.25 112.5 90.25 112.5 C 93.25 112.5 93 106.25 89.5 94.75 C 88 89.25 87.5 84.25 88.25 83.25 C 89.25 82.5 94.5 84.75 100 88.5 C 110.25 95.25 115 96.5 115 92.75 C 115 90.5 91 75 87.75 75 C 86.5 75 84.25 76.5 82.75 78.5 Z M 82.75 78.5 " fill-opacity="1" fill-rule="nonzero"/><path fill="#000000" d="M 298.75 96.25 C 295.25 99.5 292.5 104 292.5 106 C 292.5 111.25 306.5 126.75 309 124.25 C 310 123.25 308.25 119.75 305 116.5 C 301 112 299.75 108.5 301 104.25 C 303.25 95.5 309.75 93.75 318.25 100 C 327.5 107 330.25 104.5 322.5 96.25 C 315 88.25 306.5 88.25 298.75 96.25 Z M 298.75 96.25 " fill-opacity="1" fill-rule="nonzero"/><path fill="#000000" d="M 147 110 C 162.5 117 180.25 136.5 186 152.25 C 191.75 168.5 190.5 191.75 183 206.5 C 176.25 220 154.5 239.25 142.25 242.75 C 137 244.5 132.5 246.5 132.5 247.25 C 132.5 250.75 189.75 305.5 192.5 304.5 C 194.5 304 195.25 289 195 248.5 C 194.75 197.5 195.25 192 200.25 178.75 C 207.25 159.75 222.25 144.75 241 137.75 C 261.5 130.25 263 130.5 262 142.75 C 261.25 152.5 260.75 153.25 248.75 157.75 C 232.5 163.75 221.25 176.75 217.75 192.75 C 213.25 213.75 211.25 212.5 246 212.5 C 268.5 212.5 277.5 213.25 278.5 215.5 C 280.5 220.5 296.75 200.5 301.25 187.75 C 309 164.75 303.75 141.75 286.25 123.75 C 264 101 225.5 99.5 199 120.25 C 193.25 124.75 191 125.25 187.75 122.75 C 178.5 116 158 107.75 147.5 106.25 L 136.25 105 Z M 147 110 " fill-opacity="1" fill-rule="nonzero"/><path fill="#000000" d="M 322 119.5 C 315.5 124.5 310.25 129.5 310 130.5 C 309.75 134.5 316 132.25 326 124.5 C 331.5 120.25 336.75 116.25 337.25 115.75 C 338 115.25 337.25 114 336 112.75 C 334.75 111.25 329 114 322 119.5 Z M 322 119.5 " fill-opacity="1" fill-rule="nonzero"/><path fill="#000000" d="M 45.75 115.5 C 40.5 122.25 37.5 129.75 39 133.25 C 40.75 138.25 59.5 151.25 61.75 149.25 C 62.5 148.25 61.25 145.25 58.75 142.5 C 54.75 138 54.5 137.25 58.5 131.5 C 65 121.25 63 118 55.25 126.75 C 51.5 131.25 47.5 135 46.75 135 C 43.75 135 45 126 48.75 121 C 50.75 118.5 52.5 115.5 52.5 114.25 C 52.5 111.5 48.25 112.25 45.75 115.5 Z M 45.75 115.5 " fill-opacity="1" fill-rule="nonzero"/><path fill="#000000" d="M 72.5 125 C 72.5 126.25 73.75 127.5 75 127.5 C 76.5 127.5 77.5 126.25 77.5 125 C 77.5 123.5 76.5 122.5 75 122.5 C 73.75 122.5 72.5 123.5 72.5 125 Z M 72.5 125 " fill-opacity="1" fill-rule="nonzero"/><path fill="#000000" d="M 115 176.25 C 115 237 113.5 233.5 135.75 226 C 150.25 221 166.25 204.25 170 189.75 C 176.5 165.75 164.75 140.25 142.25 129 C 135 125.5 125.75 122.5 122 122.5 L 115 122.5 Z M 115 176.25 " fill-opacity="1" fill-rule="nonzero"/><path fill="#000000" d="M 85.75 136.75 C 79.75 147 78.75 151.5 78.75 167.5 C 78.75 183.5 79.75 188 85.75 198 C 89.5 204.75 93.75 210 95 210 C 96.5 210 97.5 193 97.5 167.5 C 97.5 142 96.5 125 95 125 C 93.75 125 89.5 130.25 85.75 136.75 Z M 85.75 136.75 " fill-opacity="1" fill-rule="nonzero"/><path fill="#000000" d="M 323.25 134.25 C 320 134.75 317.5 136.5 317.5 138 C 317.5 139.75 322.5 140 332.5 139 C 340.75 138 347.5 138 347.5 139 C 347.5 140 343.5 145 338.75 150.25 C 330 160 327.75 165 332.25 165 C 336.75 165 355 140.5 353.5 136.5 C 352 132.5 337.5 131.5 323.25 134.25 Z M 323.25 134.25 " fill-opacity="1" fill-rule="nonzero"/><path fill="#000000" d="M 51.5 154.5 C 50.75 156 51.25 158 52.75 158.75 C 56.5 161.25 59 158 55.75 154.75 C 54 153 52.5 153 51.5 154.5 Z M 51.5 154.5 " fill-opacity="1" fill-rule="nonzero"/><path fill="#000000" d="M 21.5 160.5 C 13 174 13.75 176.25 29 182.25 C 36.75 185.25 43.5 187.25 43.75 187 C 46.75 183 50 174 50 169 C 50 156.25 28.5 149.75 21.5 160.5 Z M 40.25 162.5 C 45.25 165.25 46.25 171.5 42.75 177.25 C 41 180 39 180 31.5 177.25 C 21.75 173.75 21 172.25 25 164.75 C 28 159.5 33 158.75 40.25 162.5 Z M 40.25 162.5 " fill-opacity="1" fill-rule="nonzero"/><path fill="#000000" d="M 351.25 161.75 C 336.25 167 333.75 170.25 337.5 181 C 341.5 193 345.5 192.5 343.5 180.25 C 342 170.75 342.25 170.5 351.5 167.5 C 357 165.75 362.25 163.5 363.25 162.5 C 367.5 158.75 361 158.25 351.25 161.75 Z M 351.25 161.75 " fill-opacity="1" fill-rule="nonzero"/><path fill="#000000" d="M 215 257.5 C 215 269.75 215.75 280 217 280 C 218 280 229 269.75 241.25 257.5 L 263.75 235 L 215 235 Z M 215 257.5 " fill-opacity="1" fill-rule="nonzero"/><path fill="#000000" d="M 88.25 254.25 C 81.5 256.5 85 271.25 95.75 287.5 C 107 304.75 106.75 304.75 153.5 323.5 C 160 326 171 333.5 177.75 340.25 L 190.5 352.5 L 188.75 344.5 C 182 310.75 170.75 294.25 147.25 282.5 C 131 274.25 130 274 130 277.5 C 130 279 136.25 284 144 289 C 151.75 294 157.25 298.5 156.5 299.25 C 155.75 300 153.5 298.75 151.25 296.5 C 148.5 294 143.25 292.5 135.5 292.75 C 125.75 293 125 293.25 130 295 C 134.5 296.5 135 297 131.75 297.25 C 129.25 297.5 121.5 295 114.75 292.25 C 101.25 286.25 96 279 93 262.75 C 92 256.75 90 253.75 88.25 254.25 Z M 148.25 299.25 C 146.5 299.75 143 299.75 140.75 299.25 C 138.25 298.5 139.75 298 143.75 298 C 148 298 149.75 298.5 148.25 299.25 Z M 148.25 299.25 " fill-opacity="1" fill-rule="nonzero"/><path fill="#000000" d="M 294.25 262.25 C 293.25 268.25 290.5 276.5 288.25 280.25 C 284 287.5 264.25 297.75 255.75 297.25 C 252.5 297 253 296.5 257.5 295 C 262.5 293.25 261.75 293 252 292.75 C 244.25 292.5 239 294 236.25 296.5 C 234 298.75 231.75 300 231 299.25 C 230.25 298.5 235.75 294 243.5 289 C 251.25 284 257.5 279 257.5 277.5 C 257.5 274 256.5 274.25 240.5 282.25 C 216.75 294.25 208.5 304.75 201.5 331.75 C 196 352.75 196.5 354 205.25 343.75 C 214.75 333 229.25 324.25 247.75 317.75 C 273.5 309 281.75 303.25 291.5 288.25 C 297 279.5 301 270 301.5 263.75 C 302.25 255.75 302 255 300.25 260 L 298.25 266.25 L 297.25 258.75 C 296.25 252 296 252.25 294.25 262.25 Z M 248.25 299.25 C 246.5 299.75 243 299.75 240.75 299.25 C 238.25 298.5 239.75 298 243.75 298 C 248 298 249.75 298.5 248.25 299.25 Z M 248.25 299.25 " fill-opacity="1" fill-rule="nonzero"/></svg>